<?xml version="1.0" encoding="UTF-8"?>
<svg xmlns="http://www.w3.org/2000/svg" width="360" height="480" viewBox="0 0 360 480">
  <rect width="360" height="480" fill="#fafafa"/>
  <rect x="0" y="0" width="360" height="42" fill="#1a365d"/>
  <text x="14" y="18" font-size="11" font-weight="bold" font-family="Arial,sans-serif" fill="#fff">READING PASSAGE 3</text>
  <text x="14" y="32" font-size="8" font-family="Arial,sans-serif" fill="#bee3f8">r3sm · Cam10 Test 2</text>
  <rect x="10" y="48" width="340" height="422" rx="4" fill="#fff" stroke="#ddd" stroke-width="1"/>
  <text x="14" y="68" font-size="9" font-weight="bold" font-family="Arial,sans-serif" fill="#111">Questions 27–31</text>
    <text x="14" y="80" font-size="7" font-family="Arial,sans-serif" fill="#555">Complete summary — phrases A–L</text>
  <rect x="14" y="86" width="332" height="108" rx="3" fill="#f8fafc" stroke="#cbd5e0" stroke-width="0.9"/>
  <text x="22" y="100" font-size="7.5" font-weight="bold" font-family="Arial,sans-serif" fill="#111">The value attached to original works of art</text>
  <text x="22" y="116" font-size="6.5" font-family="Arial,sans-serif" fill="#333">People go to museums… depended on</text>
  <rect x="198" y="106" width="34" height="12" rx="2" fill="#fff" stroke="#2b6cb0" stroke-width="0.8"/>
  <text x="215" y="115" text-anchor="middle" font-size="6" font-family="Arial,sans-serif" fill="#2b6cb0">27</text>
  <text x="236" y="116" font-size="6.5" font-family="Arial,sans-serif" fill="#333">for so long…</text>
  <text x="22" y="132" font-size="6.5" font-family="Arial,sans-serif" fill="#333">…instruct</text>
  <rect x="88" y="122" width="34" height="12" rx="2" fill="#fff" stroke="#2b6cb0" stroke-width="0.8"/>
  <text x="105" y="131" text-anchor="middle" font-size="6" font-family="Arial,sans-serif" fill="#2b6cb0">29</text>
  <text x="22" y="148" font-size="6.5" font-family="Arial,sans-serif" fill="#333">…colour and</text>
  <rect x="88" y="138" width="34" height="12" rx="2" fill="#fff" stroke="#2b6cb0" stroke-width="0.8"/>
  <text x="105" y="147" text-anchor="middle" font-size="6" font-family="Arial,sans-serif" fill="#2b6cb0">30</text>
  <text x="18" y="206" font-size="7.5" font-family="Arial,sans-serif" fill="#222"><tspan font-weight="bold">A</tspan>  institution</text>
  <text x="18" y="218" font-size="7.5" font-family="Arial,sans-serif" fill="#222"><tspan font-weight="bold">B</tspan>  mass production</text>
  <text x="18" y="230" font-size="7.5" font-family="Arial,sans-serif" fill="#222"><tspan font-weight="bold">C</tspan>  mechanical processes</text>
  <text x="14" y="248" font-size="9" font-weight="bold" font-family="Arial,sans-serif" fill="#111">Questions 32–35</text>
    <text x="14" y="260" font-size="7" font-family="Arial,sans-serif" fill="#555">Choose A, B, C or D</text>
  <text x="14" y="264" font-size="8" font-weight="bold" font-family="Arial,sans-serif" fill="#111">32. National Gallery illustrates…</text>
    <g transform="translate(0,6)"><circle cx="30" cy="274" r="5" fill="#fff" stroke="#333" stroke-width="0.8"/>
      <text x="38" y="277" font-size="7" font-family="Arial,sans-serif" fill="#555">A</text><circle cx="108" cy="274" r="5" fill="#fff" stroke="#333" stroke-width="0.8"/>
      <text x="116" y="277" font-size="7" font-family="Arial,sans-serif" fill="#555">B</text><circle cx="186" cy="274" r="5" fill="#fff" stroke="#333" stroke-width="0.8"/>
      <text x="194" y="277" font-size="7" font-family="Arial,sans-serif" fill="#555">C</text><circle cx="264" cy="274" r="5" fill="#fff" stroke="#333" stroke-width="0.8"/>
      <text x="272" y="277" font-size="7" font-family="Arial,sans-serif" fill="#555">D</text></g>
  <text x="14" y="292" font-size="8" font-weight="bold" font-family="Arial,sans-serif" fill="#111">33. Viewers unwilling to criticise because…</text>
    <g transform="translate(0,6)"><circle cx="30" cy="302" r="5" fill="#fff" stroke="#333" stroke-width="0.8"/>
      <text x="38" y="305" font-size="7" font-family="Arial,sans-serif" fill="#555">A</text><circle cx="108" cy="302" r="5" fill="#fff" stroke="#333" stroke-width="0.8"/>
      <text x="116" y="305" font-size="7" font-family="Arial,sans-serif" fill="#555">B</text><circle cx="186" cy="302" r="5" fill="#fff" stroke="#333" stroke-width="0.8"/>
      <text x="194" y="305" font-size="7" font-family="Arial,sans-serif" fill="#555">C</text><circle cx="264" cy="302" r="5" fill="#fff" stroke="#333" stroke-width="0.8"/>
      <text x="272" y="305" font-size="7" font-family="Arial,sans-serif" fill="#555">D</text></g>
  <text x="14" y="340" font-size="9" font-weight="bold" font-family="Arial,sans-serif" fill="#111">Questions 36–40</text>
    <text x="14" y="352" font-size="7" font-family="Arial,sans-serif" fill="#555">YES / NO / NOT GIVEN</text>
  <text x="14" y="370" font-size="8" font-family="Arial,sans-serif" fill="#111">36. Art history should use many media.</text><rect x="268" y="358" width="22" height="16" rx="2" fill="#fff" stroke="#333" stroke-width="0.8"/>
      <text x="279" y="370" text-anchor="middle" font-size="7" font-family="Arial,sans-serif" fill="#333">Y</text><rect x="294" y="358" width="22" height="16" rx="2" fill="#fff" stroke="#333" stroke-width="0.8"/>
      <text x="305" y="370" text-anchor="middle" font-size="7" font-family="Arial,sans-serif" fill="#333">N</text><rect x="320" y="358" width="22" height="16" rx="2" fill="#fff" stroke="#333" stroke-width="0.8"/>
      <text x="331" y="370" text-anchor="middle" font-size="7" font-family="Arial,sans-serif" fill="#333">NG</text>
  <text x="14" y="392" font-size="8" font-family="Arial,sans-serif" fill="#111">37. Historians conflict with museums.</text><rect x="268" y="380" width="22" height="16" rx="2" fill="#fff" stroke="#333" stroke-width="0.8"/>
      <text x="279" y="392" text-anchor="middle" font-size="7" font-family="Arial,sans-serif" fill="#333">Y</text><rect x="294" y="380" width="22" height="16" rx="2" fill="#fff" stroke="#333" stroke-width="0.8"/>
      <text x="305" y="392" text-anchor="middle" font-size="7" font-family="Arial,sans-serif" fill="#333">N</text><rect x="320" y="380" width="22" height="16" rx="2" fill="#fff" stroke="#333" stroke-width="0.8"/>
      <text x="331" y="392" text-anchor="middle" font-size="7" font-family="Arial,sans-serif" fill="#333">NG</text>
</svg>