<?xml version="1.0" encoding="UTF-8"?>
<svg xmlns="http://www.w3.org/2000/svg" width="360" height="480" viewBox="0 0 360 480">
  <rect width="360" height="480" fill="#fafafa"/>
  <rect x="0" y="0" width="360" height="42" fill="#1a365d"/>
  <text x="14" y="18" font-size="11" font-weight="bold" font-family="Arial,sans-serif" fill="#fff">READING PASSAGE 3</text>
  <text x="14" y="32" font-size="8" font-family="Arial,sans-serif" fill="#bee3f8">r3y · YNNG + MC layout</text>
  <rect x="10" y="48" width="340" height="422" rx="4" fill="#fff" stroke="#ddd" stroke-width="1"/>
  <text x="14" y="68" font-size="9" font-weight="bold" font-family="Arial,sans-serif" fill="#111">Questions 27–32</text>
    <text x="14" y="80" font-size="7" font-family="Arial,sans-serif" fill="#555">YES / NO / NOT GIVEN — views of writer</text>
  <text x="14" y="102" font-size="8" font-family="Arial,sans-serif" fill="#111">27. Writer dismisses all research.</text><rect x="268" y="90" width="22" height="16" rx="2" fill="#fff" stroke="#333" stroke-width="0.8"/>
      <text x="279" y="102" text-anchor="middle" font-size="7" font-family="Arial,sans-serif" fill="#333">Y</text><rect x="294" y="90" width="22" height="16" rx="2" fill="#fff" stroke="#333" stroke-width="0.8"/>
      <text x="305" y="102" text-anchor="middle" font-size="7" font-family="Arial,sans-serif" fill="#333">N</text><rect x="320" y="90" width="22" height="16" rx="2" fill="#fff" stroke="#333" stroke-width="0.8"/>
      <text x="331" y="102" text-anchor="middle" font-size="7" font-family="Arial,sans-serif" fill="#333">NG</text>
  <text x="14" y="124" font-size="8" font-family="Arial,sans-serif" fill="#111">28. Sleep after revision helps tests.</text><rect x="268" y="112" width="22" height="16" rx="2" fill="#fff" stroke="#333" stroke-width="0.8"/>
      <text x="279" y="124" text-anchor="middle" font-size="7" font-family="Arial,sans-serif" fill="#333">Y</text><rect x="294" y="112" width="22" height="16" rx="2" fill="#fff" stroke="#333" stroke-width="0.8"/>
      <text x="305" y="124" text-anchor="middle" font-size="7" font-family="Arial,sans-serif" fill="#333">N</text><rect x="320" y="112" width="22" height="16" rx="2" fill="#fff" stroke="#333" stroke-width="0.8"/>
      <text x="331" y="124" text-anchor="middle" font-size="7" font-family="Arial,sans-serif" fill="#333">NG</text>
  <text x="14" y="146" font-size="8" font-family="Arial,sans-serif" fill="#111">29. Cutting sleep has no effect.</text><rect x="268" y="134" width="22" height="16" rx="2" fill="#fff" stroke="#333" stroke-width="0.8"/>
      <text x="279" y="146" text-anchor="middle" font-size="7" font-family="Arial,sans-serif" fill="#333">Y</text><rect x="294" y="134" width="22" height="16" rx="2" fill="#fff" stroke="#333" stroke-width="0.8"/>
      <text x="305" y="146" text-anchor="middle" font-size="7" font-family="Arial,sans-serif" fill="#333">N</text><rect x="320" y="134" width="22" height="16" rx="2" fill="#fff" stroke="#333" stroke-width="0.8"/>
      <text x="331" y="146" text-anchor="middle" font-size="7" font-family="Arial,sans-serif" fill="#333">NG</text>
  <text x="14" y="162" font-size="9" font-weight="bold" font-family="Arial,sans-serif" fill="#111">Questions 33–40</text>
    <text x="14" y="174" font-size="7" font-family="Arial,sans-serif" fill="#555">Choose A, B, C or D</text>
  <text x="14" y="178" font-size="8" font-weight="bold" font-family="Arial,sans-serif" fill="#111">33. Purpose of the first paragraph?</text>
    <g transform="translate(0,6)"><circle cx="30" cy="188" r="5" fill="#fff" stroke="#333" stroke-width="0.8"/>
      <text x="38" y="191" font-size="7" font-family="Arial,sans-serif" fill="#555">A</text><circle cx="108" cy="188" r="5" fill="#fff" stroke="#333" stroke-width="0.8"/>
      <text x="116" y="191" font-size="7" font-family="Arial,sans-serif" fill="#555">B</text><circle cx="186" cy="188" r="5" fill="#fff" stroke="#333" stroke-width="0.8"/>
      <text x="194" y="191" font-size="7" font-family="Arial,sans-serif" fill="#555">C</text><circle cx="264" cy="188" r="5" fill="#fff" stroke="#333" stroke-width="0.8"/>
      <text x="272" y="191" font-size="7" font-family="Arial,sans-serif" fill="#555">D</text></g>
  <text x="14" y="206" font-size="8" font-weight="bold" font-family="Arial,sans-serif" fill="#111">34. During slow-wave sleep…</text>
    <g transform="translate(0,6)"><circle cx="30" cy="216" r="5" fill="#fff" stroke="#333" stroke-width="0.8"/>
      <text x="38" y="219" font-size="7" font-family="Arial,sans-serif" fill="#555">A</text><circle cx="108" cy="216" r="5" fill="#fff" stroke="#333" stroke-width="0.8"/>
      <text x="116" y="219" font-size="7" font-family="Arial,sans-serif" fill="#555">B</text><circle cx="186" cy="216" r="5" fill="#fff" stroke="#333" stroke-width="0.8"/>
      <text x="194" y="219" font-size="7" font-family="Arial,sans-serif" fill="#555">C</text><circle cx="264" cy="216" r="5" fill="#fff" stroke="#333" stroke-width="0.8"/>
      <text x="272" y="219" font-size="7" font-family="Arial,sans-serif" fill="#555">D</text></g>
</svg>