<svg xmlns="http://www.w3.org/2000/svg" viewBox="0 0 120 120" role="img" aria-labelledby="title">
  <title id="title">Bird mascot celebrating</title>
  <g id="sparkles" fill="none" stroke="#F5B941" stroke-width="2.5" stroke-linecap="round">
    <path id="sparkle-left" d="M16 26v10m-5-5h10"/><path id="sparkle-right" d="M103 22v12m-6-6h12"/>
    <path id="music-note" d="M99 48V35l8-2v12m-8 3c-5 2-7-4-2-6m10 3c-5 2-7-4-2-6"/>
  </g>
  <g id="bird-happy" class="bird state-happy" stroke="#3A3632" stroke-width="2.5" stroke-linecap="round" stroke-linejoin="round">
    <path id="tail" d="M48 94 39 106 55 102 61 110 67 100" fill="#58B9D6"/>
    <path id="leg-left" d="M52 97v9m-6 0h11" fill="none"/><path id="leg-right" d="M70 97v9m-5 0h11" fill="none"/>
    <ellipse id="body" cx="61" cy="77" rx="27" ry="28" fill="#73D6B4"/>
    <ellipse id="belly" cx="61" cy="82" rx="16" ry="18" fill="#FFF3C9" stroke="none"/>
    <path id="wing-left" d="M39 69Q18 57 20 37q17 6 27 23" fill="#58B9D6"/>
    <path id="wing-right" d="M83 69q21-12 19-32-17 6-27 23" fill="#58B9D6"/>
    <circle id="head" cx="61" cy="43" r="31" fill="#73D6B4"/>
    <path id="tuft" d="M50 15q8-9 12 1 8-9 11 2" fill="#73D6B4"/>
    <path id="eye-left" d="M44 42q6-8 12 0" fill="none"/><path id="eye-right" d="M66 42q6-8 12 0" fill="none"/>
    <path id="beak" d="m57 50 14 5-14 6Z" fill="#FF9B66"/>
    <path id="smile" d="M57 63q5 5 10 0" fill="none"/>
  </g>
</svg>
