<svg xmlns="http://www.w3.org/2000/svg" viewBox="0 0 220 130" role="img" aria-labelledby="title">
  <title id="title">Bird mascot and Sunny together as friends</title>
  <g id="sunny-friend" stroke="#3A3632" stroke-linecap="round">
    <g id="sun-rays" stroke="#F5B941" stroke-width="5">
      <path d="M166 12v12M166 106v12M112 65h12M208 65h10M128 27l9 9M195 94l9 9M128 103l9-9M195 36l9-9"/>
    </g>
    <circle id="sun-body" cx="166" cy="65" r="39" fill="#FFD45C" stroke-width="2.5"/>
    <circle id="sun-eye-left" cx="152" cy="59" r="3.5" fill="#3A3632" stroke="none"/><circle id="sun-eye-right" cx="180" cy="59" r="3.5" fill="#3A3632" stroke="none"/>
    <path id="sun-smile" d="M151 76q15 13 30 0" fill="none" stroke-width="3"/>
  </g>
  <g id="bird-friend" class="bird state-friend" transform="translate(4 7) rotate(3 65 65)" stroke="#3A3632" stroke-width="2.5" stroke-linecap="round" stroke-linejoin="round">
    <path id="tail" d="M48 94 39 106 55 102 61 110 67 100" fill="#58B9D6"/>
    <path id="leg-left" d="M52 97v9m-6 0h11" fill="none"/><path id="leg-right" d="M70 97v9m-5 0h11" fill="none"/>
    <ellipse id="body" cx="61" cy="77" rx="28" ry="29" fill="#73D6B4"/><ellipse id="belly" cx="61" cy="82" rx="17" ry="19" fill="#FFF3C9" stroke="none"/>
    <path id="wing-left" d="M36 69q-13 9-7 25 11-3 16-16" fill="#58B9D6"/><path id="wing-right" d="M84 69q18 1 24-11-15-6-28 2" fill="#58B9D6"/>
    <circle id="head" cx="61" cy="43" r="31" fill="#73D6B4"/><path id="tuft" d="M50 15q8-9 12 1 8-9 11 2" fill="#73D6B4"/>
    <circle id="eye-left" cx="52" cy="41" r="5.5" fill="#3A3632" stroke="none"/><path id="eye-right" d="M68 42q6-7 12 0" fill="none"/>
    <circle id="eye-shine-left" cx="54" cy="39" r="1.7" fill="#FFFFFF" stroke="none"/><path id="beak" d="m58 51 14 5-14 6Z" fill="#FF9B66"/>
    <path id="smile" d="M59 64q4 3 8 0" fill="none"/>
  </g>
</svg>
