<svg xmlns="http://www.w3.org/2000/svg" viewBox="0 0 120 120" role="img" aria-labelledby="title">
  <title id="title">Bird mascot offering gentle encouragement</title>
  <g id="bird-sad" class="bird state-sad" transform="rotate(-4 61 56)" stroke="#3A3632" stroke-width="2.5" stroke-linecap="round" stroke-linejoin="round">
    <path id="tail" d="M49 94 42 106 57 101 63 108 69 98" fill="#58B9D6"/>
    <path id="leg-left" d="M53 97v9m-6 0h11" fill="none"/><path id="leg-right" d="M70 97v9m-5 0h11" fill="none"/>
    <ellipse id="body" cx="62" cy="77" rx="28" ry="29" fill="#73D6B4"/>
    <ellipse id="belly" cx="62" cy="82" rx="17" ry="18" fill="#FFF3C9" stroke="none"/>
    <path id="wing-left" d="M37 68q-12 15-2 27 10-7 12-20" fill="#58B9D6"/>
    <path id="wing-right" d="M87 68q12 15 2 27-10-7-12-20" fill="#58B9D6"/>
    <circle id="head" cx="62" cy="43" r="31" fill="#73D6B4"/>
    <path id="tuft" d="M51 15q8-9 12 1 8-9 11 2" fill="#73D6B4"/>
    <path id="brow-left" d="m44 34 10 2" fill="none"/><path id="brow-right" d="m70 36 10-2" fill="none"/>
    <ellipse id="eye-left" cx="50" cy="43" rx="5.5" ry="7" fill="#3A3632" stroke="none"/>
    <ellipse id="eye-right" cx="74" cy="43" rx="5.5" ry="7" fill="#3A3632" stroke="none"/>
    <circle id="eye-shine-left" cx="52" cy="40" r="1.8" fill="#FFFFFF" stroke="none"/><circle id="eye-shine-right" cx="76" cy="40" r="1.8" fill="#FFFFFF" stroke="none"/>
    <path id="beak" d="m58 52 13 4-13 6Z" fill="#FF9B66"/>
    <path id="mouth" d="M59 65q4-3 8 0" fill="none"/>
  </g>
</svg>
