<?xml version="1.0" encoding="UTF-8"?>
<svg xmlns="http://www.w3.org/2000/svg" width="360" height="480" viewBox="0 0 360 480">
  <rect width="360" height="480" fill="#fafafa"/>
  <rect x="0" y="0" width="360" height="42" fill="#1a365d"/>
  <text x="14" y="18" font-size="11" font-weight="bold" font-family="Arial,sans-serif" fill="#fff">READING PASSAGE 3</text>
  <text x="14" y="32" font-size="8" font-family="Arial,sans-serif" fill="#bee3f8">r3gt · Cam10–14 P3</text>
  <rect x="10" y="48" width="340" height="422" rx="4" fill="#fff" stroke="#ddd" stroke-width="1"/>
  <text x="14" y="68" font-size="9" font-weight="bold" font-family="Arial,sans-serif" fill="#111">Questions 27–31</text>
    <text x="14" y="80" font-size="7" font-family="Arial,sans-serif" fill="#555">Complete summary — TWO WORDS</text>
  <text x="14" y="96" font-size="8" font-family="Arial,sans-serif" fill="#111">27. Sleep is linked to ___</text>
    <rect x="106.4" y="86" width="48" height="14" rx="2" fill="#e8f4fc" stroke="#2b6cb0" stroke-width="0.9"/>
    <text x="130.4" y="96" font-size="8" font-family="Arial,sans-serif" fill="#111"></text>
  <text x="14" y="118" font-size="8" font-family="Arial,sans-serif" fill="#111">28. Brain replays experiences from the ___</text>
    <rect x="173.6" y="108" width="48" height="14" rx="2" fill="#e8f4fc" stroke="#2b6cb0" stroke-width="0.9"/>
    <text x="197.6" y="118" font-size="8" font-family="Arial,sans-serif" fill="#111"></text>
  <text x="14" y="140" font-size="8" font-family="Arial,sans-serif" fill="#111">29. REM supports ___ solving</text>
    <rect x="114.80000000000001" y="130" width="48" height="14" rx="2" fill="#e8f4fc" stroke="#2b6cb0" stroke-width="0.9"/>
    <text x="138.8" y="140" font-size="8" font-family="Arial,sans-serif" fill="#111"></text>
  <text x="14" y="200" font-size="9" font-weight="bold" font-family="Arial,sans-serif" fill="#111">Questions 32–36</text>
    <text x="14" y="212" font-size="7" font-family="Arial,sans-serif" fill="#555">TRUE / FALSE / NOT GIVEN</text>
  <text x="14" y="230" font-size="8" font-family="Arial,sans-serif" fill="#111">32. Scientists fully explained sleep and memory.</text><rect x="268" y="218" width="22" height="16" rx="2" fill="#fff" stroke="#333" stroke-width="0.8"/>
      <text x="279" y="230" text-anchor="middle" font-size="7" font-family="Arial,sans-serif" fill="#333">T</text><rect x="294" y="218" width="22" height="16" rx="2" fill="#fff" stroke="#333" stroke-width="0.8"/>
      <text x="305" y="230" text-anchor="middle" font-size="7" font-family="Arial,sans-serif" fill="#333">F</text><rect x="320" y="218" width="22" height="16" rx="2" fill="#fff" stroke="#333" stroke-width="0.8"/>
      <text x="331" y="230" text-anchor="middle" font-size="7" font-family="Arial,sans-serif" fill="#333">NG</text>
  <text x="14" y="252" font-size="8" font-family="Arial,sans-serif" fill="#111">33. Slow-wave sleep strengthens connections.</text><rect x="268" y="240" width="22" height="16" rx="2" fill="#fff" stroke="#333" stroke-width="0.8"/>
      <text x="279" y="252" text-anchor="middle" font-size="7" font-family="Arial,sans-serif" fill="#333">T</text><rect x="294" y="240" width="22" height="16" rx="2" fill="#fff" stroke="#333" stroke-width="0.8"/>
      <text x="305" y="252" text-anchor="middle" font-size="7" font-family="Arial,sans-serif" fill="#333">F</text><rect x="320" y="240" width="22" height="16" rx="2" fill="#fff" stroke="#333" stroke-width="0.8"/>
      <text x="331" y="252" text-anchor="middle" font-size="7" font-family="Arial,sans-serif" fill="#333">NG</text>
  <text x="14" y="268" font-size="9" font-weight="bold" font-family="Arial,sans-serif" fill="#111">Questions 37–40</text>
    <text x="14" y="280" font-size="7" font-family="Arial,sans-serif" fill="#555">Choose A, B, C or D</text>
  <text x="14" y="284" font-size="8" font-weight="bold" font-family="Arial,sans-serif" fill="#111">37. Purpose of the first paragraph?</text>
    <g transform="translate(0,6)"><circle cx="30" cy="294" r="5" fill="#fff" stroke="#333" stroke-width="0.8"/>
      <text x="38" y="297" font-size="7" font-family="Arial,sans-serif" fill="#555">A</text><circle cx="108" cy="294" r="5" fill="#fff" stroke="#333" stroke-width="0.8"/>
      <text x="116" y="297" font-size="7" font-family="Arial,sans-serif" fill="#555">B</text><circle cx="186" cy="294" r="5" fill="#fff" stroke="#333" stroke-width="0.8"/>
      <text x="194" y="297" font-size="7" font-family="Arial,sans-serif" fill="#555">C</text><circle cx="264" cy="294" r="5" fill="#fff" stroke="#333" stroke-width="0.8"/>
      <text x="272" y="297" font-size="7" font-family="Arial,sans-serif" fill="#555">D</text></g>
</svg>