<?xml version="1.0" encoding="UTF-8"?>
<svg xmlns="http://www.w3.org/2000/svg" width="360" height="480" viewBox="0 0 360 480">
  <rect width="360" height="480" fill="#fafafa"/>
  <rect x="0" y="0" width="360" height="42" fill="#1a365d"/>
  <text x="14" y="18" font-size="11" font-weight="bold" font-family="Arial,sans-serif" fill="#fff">READING PASSAGE 1</text>
  <text x="14" y="32" font-size="8" font-family="Arial,sans-serif" fill="#bee3f8">r1m · Cam12–14 P1</text>
  <rect x="10" y="48" width="340" height="422" rx="4" fill="#fff" stroke="#ddd" stroke-width="1"/>
  <text x="14" y="68" font-size="9" font-weight="bold" font-family="Arial,sans-serif" fill="#111">Questions 1–6</text>
    <text x="14" y="80" font-size="7" font-family="Arial,sans-serif" fill="#555">Complete notes — NO MORE THAN TWO WORDS</text>
  <text x="14" y="96" font-size="8" font-family="Arial,sans-serif" fill="#111">1. Type of parrot: ___</text>
    <rect x="93.8" y="86" width="48" height="14" rx="2" fill="#e8f4fc" stroke="#2b6cb0" stroke-width="0.9"/>
    <text x="117.8" y="96" font-size="8" font-family="Arial,sans-serif" fill="#111"></text>
  <text x="14" y="118" font-size="8" font-family="Arial,sans-serif" fill="#111">2. Maximum lifespan: ___ years</text>
    <rect x="127.4" y="108" width="48" height="14" rx="2" fill="#e8f4fc" stroke="#2b6cb0" stroke-width="0.9"/>
    <text x="151.4" y="118" font-size="8" font-family="Arial,sans-serif" fill="#111"></text>
  <text x="14" y="140" font-size="8" font-family="Arial,sans-serif" fill="#111">3. Diet: completely ___</text>
    <rect x="98" y="130" width="48" height="14" rx="2" fill="#e8f4fc" stroke="#2b6cb0" stroke-width="0.9"/>
    <text x="122" y="140" font-size="8" font-family="Arial,sans-serif" fill="#111"></text>
  <text x="14" y="200" font-size="9" font-weight="bold" font-family="Arial,sans-serif" fill="#111">Questions 7–13</text>
    <text x="14" y="212" font-size="7" font-family="Arial,sans-serif" fill="#555">Choose A, B, C or D</text>
  <text x="14" y="216" font-size="8" font-weight="bold" font-family="Arial,sans-serif" fill="#111">7. When do females lay eggs?</text>
    <g transform="translate(0,6)"><circle cx="30" cy="226" r="5" fill="#fff" stroke="#333" stroke-width="0.8"/>
      <text x="38" y="229" font-size="7" font-family="Arial,sans-serif" fill="#555">A</text><circle cx="108" cy="226" r="5" fill="#fff" stroke="#333" stroke-width="0.8"/>
      <text x="116" y="229" font-size="7" font-family="Arial,sans-serif" fill="#555">B</text><circle cx="186" cy="226" r="5" fill="#fff" stroke="#333" stroke-width="0.8"/>
      <text x="194" y="229" font-size="7" font-family="Arial,sans-serif" fill="#555">C</text><circle cx="264" cy="226" r="5" fill="#fff" stroke="#333" stroke-width="0.8"/>
      <text x="272" y="229" font-size="7" font-family="Arial,sans-serif" fill="#555">D</text></g>
  <text x="14" y="244" font-size="8" font-weight="bold" font-family="Arial,sans-serif" fill="#111">8. Numbers before conservation?</text>
    <g transform="translate(0,6)"><circle cx="30" cy="254" r="5" fill="#fff" stroke="#333" stroke-width="0.8"/>
      <text x="38" y="257" font-size="7" font-family="Arial,sans-serif" fill="#555">A</text><circle cx="108" cy="254" r="5" fill="#fff" stroke="#333" stroke-width="0.8"/>
      <text x="116" y="257" font-size="7" font-family="Arial,sans-serif" fill="#555">B</text><circle cx="186" cy="254" r="5" fill="#fff" stroke="#333" stroke-width="0.8"/>
      <text x="194" y="257" font-size="7" font-family="Arial,sans-serif" fill="#555">C</text><circle cx="264" cy="254" r="5" fill="#fff" stroke="#333" stroke-width="0.8"/>
      <text x="272" y="257" font-size="7" font-family="Arial,sans-serif" fill="#555">D</text></g>
</svg>