<svg xmlns="http://www.w3.org/2000/svg" width="100%" viewBox="0 0 18 20" fill="none"
             >
              <path opacity="0"
                d="M11.7105 1.98509C11.7105 3.08142 12.5992 3.97018 13.6956 3.97018C14.7919 3.97018 15.6807 3.08142 15.6807 1.98509C15.6807 0.888755 14.7919 0 13.6956 0C12.5992 0 11.7105 0.888755 11.7105 1.98509Z"
                fill="#121212"></path>
              <path opacity="0"
                d="M3.48091e-05 2.97764C3.48091e-05 4.07398 0.88879 4.96273 1.98512 4.96273C3.08146 4.96273 3.97021 4.07398 3.97021 2.97764C3.97021 1.88131 3.08146 0.992554 1.98512 0.992554C0.88879 0.992554 3.48091e-05 1.88131 3.48091e-05 2.97764Z"
                fill="#121212"></path>
              <path
                d="M4.36526 10.0526C5.48807 11.3236 7.37792 12.4373 8.99134 12.3823C10.3455 12.3362 11.3858 12.1855 12.582 11.4026C13.4381 10.8424 13.9967 10.0329 14.7406 8.66282"
                stroke="#121212" stroke-width="1.5" stroke-linecap="round"></path>
              <path d="M10.5 2L14.5 1.49999" stroke="#121212" stroke-width="1.5" stroke-linecap="round"></path>
              <path
                d="M11.8921 18C5.9557 19.2392 4.66149 14.9968 3.5863 11.9479C3.37455 11.3475 3.80655 10.6869 4.44285 10.6652C9.15161 10.5051 11.2843 10.3509 14.8793 8.66061C15.4922 8.37244 16.2307 8.80754 16.2719 9.48354C16.4616 12.6034 16.766 16.6483 11.8921 18Z"
                fill="#F3E8CC" stroke="#121212" stroke-width="1.5" stroke-linecap="round"></path>
              <path d="M4.5 14C9.24535 14.5931 13.9652 13.5983 16 12" stroke="#121212" stroke-width="1.5"
                stroke-linecap="round"></path>
            </svg>