<?xml version="1.0" encoding="UTF-8"?>
<svg xmlns="http://www.w3.org/2000/svg" width="360" height="480" viewBox="0 0 360 480">
  <rect width="360" height="480" fill="#fafafa"/>
  <rect x="0" y="0" width="360" height="42" fill="#1a365d"/>
  <text x="14" y="18" font-size="11" font-weight="bold" font-family="Arial,sans-serif" fill="#fff">READING PASSAGE 2</text>
  <text x="14" y="32" font-size="8" font-family="Arial,sans-serif" fill="#bee3f8">r2 · Cam10 Test 1</text>
  <rect x="10" y="48" width="340" height="422" rx="4" fill="#fff" stroke="#ddd" stroke-width="1"/>
  <text x="14" y="68" font-size="9" font-weight="bold" font-family="Arial,sans-serif" fill="#111">Questions 14–18</text>
    <text x="14" y="80" font-size="7" font-family="Arial,sans-serif" fill="#555">Which paragraph contains…? NB: letter more than once</text>
  <text x="14" y="100" font-size="8" font-family="Arial,sans-serif" fill="#111">14. research problems with few large elms</text>
    <rect x="300" y="90" width="22" height="14" rx="2" fill="#fff" stroke="#333" stroke-width="0.8"/>
    <text x="311" y="100" text-anchor="middle" font-size="8" font-family="Arial,sans-serif" fill="#555">A</text>
  <text x="14" y="122" font-size="8" font-family="Arial,sans-serif" fill="#111">15. difference of opinion on reintroduction</text>
    <rect x="300" y="112" width="22" height="14" rx="2" fill="#fff" stroke="#333" stroke-width="0.8"/>
    <text x="311" y="122" text-anchor="middle" font-size="8" font-family="Arial,sans-serif" fill="#555">A</text>
  <text x="14" y="144" font-size="8" font-family="Arial,sans-serif" fill="#111">16. how disease was brought to Britain</text>
    <rect x="300" y="134" width="22" height="14" rx="2" fill="#fff" stroke="#333" stroke-width="0.8"/>
    <text x="311" y="144" text-anchor="middle" font-size="8" font-family="Arial,sans-serif" fill="#555">A</text>
  <text x="14" y="164" font-size="9" font-weight="bold" font-family="Arial,sans-serif" fill="#111">Questions 19–23</text>
    <text x="14" y="176" font-size="7" font-family="Arial,sans-serif" fill="#555">Match statement with person A–C</text>
  <text x="14" y="196" font-size="8" font-family="Arial,sans-serif" fill="#111">19. expresses optimism</text>
    <rect x="300" y="186" width="22" height="14" rx="2" fill="#fff" stroke="#333" stroke-width="0.8"/>
    <text x="311" y="196" text-anchor="middle" font-size="8" font-family="Arial,sans-serif" fill="#555">A</text>
  <text x="14" y="218" font-size="8" font-family="Arial,sans-serif" fill="#111">20. reports on restoration attempts</text>
    <rect x="300" y="208" width="22" height="14" rx="2" fill="#fff" stroke="#333" stroke-width="0.8"/>
    <text x="311" y="218" text-anchor="middle" font-size="8" font-family="Arial,sans-serif" fill="#555">A</text>
  <text x="14" y="236" font-size="9" font-weight="bold" font-family="Arial,sans-serif" fill="#111">Questions 24–26</text>
    <text x="14" y="248" font-size="7" font-family="Arial,sans-serif" fill="#555">Choose A, B, C or D</text>
  <text x="14" y="252" font-size="8" font-weight="bold" font-family="Arial,sans-serif" fill="#111">24. What proportion of elms was lost?</text>
    <g transform="translate(0,6)"><circle cx="30" cy="262" r="5" fill="#fff" stroke="#333" stroke-width="0.8"/>
      <text x="38" y="265" font-size="7" font-family="Arial,sans-serif" fill="#555">A</text><circle cx="108" cy="262" r="5" fill="#fff" stroke="#333" stroke-width="0.8"/>
      <text x="116" y="265" font-size="7" font-family="Arial,sans-serif" fill="#555">B</text><circle cx="186" cy="262" r="5" fill="#fff" stroke="#333" stroke-width="0.8"/>
      <text x="194" y="265" font-size="7" font-family="Arial,sans-serif" fill="#555">C</text><circle cx="264" cy="262" r="5" fill="#fff" stroke="#333" stroke-width="0.8"/>
      <text x="272" y="265" font-size="7" font-family="Arial,sans-serif" fill="#555">D</text></g>
</svg>