<?xml version="1.0" encoding="UTF-8"?>
<svg xmlns="http://www.w3.org/2000/svg" width="360" height="480" viewBox="0 0 360 480">
  <rect width="360" height="480" fill="#fafafa"/>
  <rect x="0" y="0" width="360" height="42" fill="#1a365d"/>
  <text x="14" y="18" font-size="11" font-weight="bold" font-family="Arial,sans-serif" fill="#fff">READING PASSAGE 2</text>
  <text x="14" y="32" font-size="8" font-family="Arial,sans-serif" fill="#bee3f8">r2h · Cam9 Test 1</text>
  <rect x="10" y="48" width="340" height="422" rx="4" fill="#fff" stroke="#ddd" stroke-width="1"/>
  <text x="14" y="68" font-size="9" font-weight="bold" font-family="Arial,sans-serif" fill="#111">Questions 14–17</text>
    <text x="14" y="80" font-size="7" font-family="Arial,sans-serif" fill="#555">Choose heading for paragraphs A–D</text>
  <text x="18" y="84" font-size="7.5" font-family="Arial,sans-serif" fill="#222"><tspan font-weight="bold">i</tspan>  How the idea of SETI began</text>
  <text x="18" y="96" font-size="7.5" font-family="Arial,sans-serif" fill="#222"><tspan font-weight="bold">ii</tspan>  Arguments against SETI</text>
  <text x="14" y="126" font-size="8" font-family="Arial,sans-serif" fill="#111">14. Paragraph A</text>
    <rect x="300" y="116" width="22" height="14" rx="2" fill="#fff" stroke="#333" stroke-width="0.8"/>
    <text x="311" y="126" text-anchor="middle" font-size="8" font-family="Arial,sans-serif" fill="#555">A</text>
  <text x="14" y="148" font-size="8" font-family="Arial,sans-serif" fill="#111">15. Paragraph B</text>
    <rect x="300" y="138" width="22" height="14" rx="2" fill="#fff" stroke="#333" stroke-width="0.8"/>
    <text x="311" y="148" text-anchor="middle" font-size="8" font-family="Arial,sans-serif" fill="#555">A</text>
  <text x="14" y="158" font-size="9" font-weight="bold" font-family="Arial,sans-serif" fill="#111">Questions 18–20</text>
    <text x="14" y="170" font-size="7" font-family="Arial,sans-serif" fill="#555">Complete sentences — TWO WORDS</text>
  <text x="14" y="186" font-size="8" font-family="Arial,sans-serif" fill="#111">18. SETI searches for signals from </text>
    <rect x="144.20000000000002" y="176" width="48" height="14" rx="2" fill="#e8f4fc" stroke="#2b6cb0" stroke-width="0.9"/>
    <text x="168.20000000000002" y="186" font-size="8" font-family="Arial,sans-serif" fill="#111"></text>
  <text x="14" y="208" font-size="8" font-family="Arial,sans-serif" fill="#111">19. The project uses large </text>
    <rect x="110.60000000000001" y="198" width="48" height="14" rx="2" fill="#e8f4fc" stroke="#2b6cb0" stroke-width="0.9"/>
    <text x="134.60000000000002" y="208" font-size="8" font-family="Arial,sans-serif" fill="#111"></text>
  <text x="14" y="230" font-size="9" font-weight="bold" font-family="Arial,sans-serif" fill="#111">Questions 21–26</text>
    <text x="14" y="242" font-size="7" font-family="Arial,sans-serif" fill="#555">YES / NO / NOT GIVEN</text>
  <text x="14" y="260" font-size="8" font-family="Arial,sans-serif" fill="#111">21. The writer supports increased funding.</text><rect x="268" y="248" width="22" height="16" rx="2" fill="#fff" stroke="#333" stroke-width="0.8"/>
      <text x="279" y="260" text-anchor="middle" font-size="7" font-family="Arial,sans-serif" fill="#333">Y</text><rect x="294" y="248" width="22" height="16" rx="2" fill="#fff" stroke="#333" stroke-width="0.8"/>
      <text x="305" y="260" text-anchor="middle" font-size="7" font-family="Arial,sans-serif" fill="#333">N</text><rect x="320" y="248" width="22" height="16" rx="2" fill="#fff" stroke="#333" stroke-width="0.8"/>
      <text x="331" y="260" text-anchor="middle" font-size="7" font-family="Arial,sans-serif" fill="#333">NG</text>
  <text x="14" y="282" font-size="8" font-family="Arial,sans-serif" fill="#111">22. Alien contact is inevitable.</text><rect x="268" y="270" width="22" height="16" rx="2" fill="#fff" stroke="#333" stroke-width="0.8"/>
      <text x="279" y="282" text-anchor="middle" font-size="7" font-family="Arial,sans-serif" fill="#333">Y</text><rect x="294" y="270" width="22" height="16" rx="2" fill="#fff" stroke="#333" stroke-width="0.8"/>
      <text x="305" y="282" text-anchor="middle" font-size="7" font-family="Arial,sans-serif" fill="#333">N</text><rect x="320" y="270" width="22" height="16" rx="2" fill="#fff" stroke="#333" stroke-width="0.8"/>
      <text x="331" y="282" text-anchor="middle" font-size="7" font-family="Arial,sans-serif" fill="#333">NG</text>
</svg>