<?xml version="1.0" encoding="UTF-8"?>
<svg xmlns="http://www.w3.org/2000/svg" width="360" height="480" viewBox="0 0 360 480">
  <rect width="360" height="480" fill="#fafafa"/>
  <rect x="0" y="0" width="360" height="42" fill="#1a365d"/>
  <text x="14" y="18" font-size="11" font-weight="bold" font-family="Arial,sans-serif" fill="#fff">READING PASSAGE 2</text>
  <text x="14" y="32" font-size="8" font-family="Arial,sans-serif" fill="#bee3f8">r2g · Cam14–17 P2</text>
  <rect x="10" y="48" width="340" height="422" rx="4" fill="#fff" stroke="#ddd" stroke-width="1"/>
  <text x="14" y="68" font-size="9" font-weight="bold" font-family="Arial,sans-serif" fill="#111">Questions 14–18</text>
    <text x="14" y="80" font-size="7" font-family="Arial,sans-serif" fill="#555">Complete sentences — TWO WORDS</text>
  <text x="14" y="96" font-size="8" font-family="Arial,sans-serif" fill="#111">14. Around ___ million elms died.</text>
    <rect x="135.8" y="86" width="48" height="14" rx="2" fill="#e8f4fc" stroke="#2b6cb0" stroke-width="0.9"/>
    <text x="159.8" y="96" font-size="8" font-family="Arial,sans-serif" fill="#111"></text>
  <text x="14" y="118" font-size="8" font-family="Arial,sans-serif" fill="#111">15. Disease spread by ___</text>
    <rect x="102.2" y="108" width="48" height="14" rx="2" fill="#e8f4fc" stroke="#2b6cb0" stroke-width="0.9"/>
    <text x="126.2" y="118" font-size="8" font-family="Arial,sans-serif" fill="#111"></text>
  <text x="14" y="140" font-size="8" font-family="Arial,sans-serif" fill="#111">16. Trees vulnerable at ___ cm.</text>
    <rect x="127.4" y="130" width="48" height="14" rx="2" fill="#e8f4fc" stroke="#2b6cb0" stroke-width="0.9"/>
    <text x="151.4" y="140" font-size="8" font-family="Arial,sans-serif" fill="#111"></text>
  <text x="14" y="200" font-size="9" font-weight="bold" font-family="Arial,sans-serif" fill="#111">Questions 19–22</text>
    <text x="14" y="212" font-size="7" font-family="Arial,sans-serif" fill="#555">Which paragraph contains…?</text>
  <text x="14" y="228" font-size="8" font-family="Arial,sans-serif" fill="#111">19. research problems with few elms</text>
    <rect x="300" y="218" width="22" height="14" rx="2" fill="#fff" stroke="#333" stroke-width="0.8"/>
    <text x="311" y="228" text-anchor="middle" font-size="8" font-family="Arial,sans-serif" fill="#555">A</text>
  <text x="14" y="250" font-size="8" font-family="Arial,sans-serif" fill="#111">20. difference of opinion</text>
    <rect x="300" y="240" width="22" height="14" rx="2" fill="#fff" stroke="#333" stroke-width="0.8"/>
    <text x="311" y="250" text-anchor="middle" font-size="8" font-family="Arial,sans-serif" fill="#555">A</text>
  <text x="14" y="268" font-size="9" font-weight="bold" font-family="Arial,sans-serif" fill="#111">Questions 23–26</text>
    <text x="14" y="280" font-size="7" font-family="Arial,sans-serif" fill="#555">Choose A, B, C or D</text>
  <text x="14" y="284" font-size="8" font-weight="bold" font-family="Arial,sans-serif" fill="#111">26. What proportion of elms was lost?</text>
    <g transform="translate(0,6)"><circle cx="30" cy="294" r="5" fill="#fff" stroke="#333" stroke-width="0.8"/>
      <text x="38" y="297" font-size="7" font-family="Arial,sans-serif" fill="#555">A</text><circle cx="108" cy="294" r="5" fill="#fff" stroke="#333" stroke-width="0.8"/>
      <text x="116" y="297" font-size="7" font-family="Arial,sans-serif" fill="#555">B</text><circle cx="186" cy="294" r="5" fill="#fff" stroke="#333" stroke-width="0.8"/>
      <text x="194" y="297" font-size="7" font-family="Arial,sans-serif" fill="#555">C</text><circle cx="264" cy="294" r="5" fill="#fff" stroke="#333" stroke-width="0.8"/>
      <text x="272" y="297" font-size="7" font-family="Arial,sans-serif" fill="#555">D</text></g>
</svg>