<?xml version="1.0" encoding="UTF-8"?>
<svg xmlns="http://www.w3.org/2000/svg" width="360" height="480" viewBox="0 0 360 480">
  <rect width="360" height="480" fill="#fafafa"/>
  <rect x="0" y="0" width="360" height="42" fill="#1a365d"/>
  <text x="14" y="18" font-size="11" font-weight="bold" font-family="Arial,sans-serif" fill="#fff">READING PASSAGE 2</text>
  <text x="14" y="32" font-size="8" font-family="Arial,sans-serif" fill="#bee3f8">r2s · Cam15–19 P2</text>
  <rect x="10" y="48" width="340" height="422" rx="4" fill="#fff" stroke="#ddd" stroke-width="1"/>
  <text x="14" y="68" font-size="9" font-weight="bold" font-family="Arial,sans-serif" fill="#111">Questions 14–17</text>
    <text x="14" y="80" font-size="7" font-family="Arial,sans-serif" fill="#555">Complete summary — choose from box A–G</text>
  <text x="18" y="84" font-size="7.5" font-family="Arial,sans-serif" fill="#222"><tspan font-weight="bold">A</tspan>  productivity</text>
  <text x="18" y="96" font-size="7.5" font-family="Arial,sans-serif" fill="#222"><tspan font-weight="bold">B</tspan>  hybrid models</text>
  <text x="18" y="108" font-size="7.5" font-family="Arial,sans-serif" fill="#222"><tspan font-weight="bold">C</tspan>  structured check-ins</text>
  <text x="14" y="136" font-size="8" font-family="Arial,sans-serif" fill="#111">14. Remote work exposed weak ___</text>
    <rect x="300" y="126" width="22" height="14" rx="2" fill="#fff" stroke="#333" stroke-width="0.8"/>
    <text x="311" y="136" text-anchor="middle" font-size="8" font-family="Arial,sans-serif" fill="#555">A</text>
  <text x="14" y="158" font-size="8" font-family="Arial,sans-serif" fill="#111">15. Marsh favours ___ over hours</text>
    <rect x="300" y="148" width="22" height="14" rx="2" fill="#fff" stroke="#333" stroke-width="0.8"/>
    <text x="311" y="158" text-anchor="middle" font-size="8" font-family="Arial,sans-serif" fill="#555">A</text>
  <text x="14" y="200" font-size="9" font-weight="bold" font-family="Arial,sans-serif" fill="#111">Questions 18–22</text>
    <text x="14" y="212" font-size="7" font-family="Arial,sans-serif" fill="#555">YES / NO / NOT GIVEN</text>
  <text x="14" y="230" font-size="8" font-family="Arial,sans-serif" fill="#111">18. Remote work reduces productivity.</text><rect x="268" y="218" width="22" height="16" rx="2" fill="#fff" stroke="#333" stroke-width="0.8"/>
      <text x="279" y="230" text-anchor="middle" font-size="7" font-family="Arial,sans-serif" fill="#333">Y</text><rect x="294" y="218" width="22" height="16" rx="2" fill="#fff" stroke="#333" stroke-width="0.8"/>
      <text x="305" y="230" text-anchor="middle" font-size="7" font-family="Arial,sans-serif" fill="#333">N</text><rect x="320" y="218" width="22" height="16" rx="2" fill="#fff" stroke="#333" stroke-width="0.8"/>
      <text x="331" y="230" text-anchor="middle" font-size="7" font-family="Arial,sans-serif" fill="#333">NG</text>
  <text x="14" y="252" font-size="8" font-family="Arial,sans-serif" fill="#111">19. Structured check-ins are preferable.</text><rect x="268" y="240" width="22" height="16" rx="2" fill="#fff" stroke="#333" stroke-width="0.8"/>
      <text x="279" y="252" text-anchor="middle" font-size="7" font-family="Arial,sans-serif" fill="#333">Y</text><rect x="294" y="240" width="22" height="16" rx="2" fill="#fff" stroke="#333" stroke-width="0.8"/>
      <text x="305" y="252" text-anchor="middle" font-size="7" font-family="Arial,sans-serif" fill="#333">N</text><rect x="320" y="240" width="22" height="16" rx="2" fill="#fff" stroke="#333" stroke-width="0.8"/>
      <text x="331" y="252" text-anchor="middle" font-size="7" font-family="Arial,sans-serif" fill="#333">NG</text>
  <text x="14" y="268" font-size="9" font-weight="bold" font-family="Arial,sans-serif" fill="#111">Questions 23–26</text>
    <text x="14" y="280" font-size="7" font-family="Arial,sans-serif" fill="#555">Choose A, B, C or D</text>
  <text x="14" y="284" font-size="8" font-weight="bold" font-family="Arial,sans-serif" fill="#111">26. What proportion was lost?</text>
    <g transform="translate(0,6)"><circle cx="30" cy="294" r="5" fill="#fff" stroke="#333" stroke-width="0.8"/>
      <text x="38" y="297" font-size="7" font-family="Arial,sans-serif" fill="#555">A</text><circle cx="108" cy="294" r="5" fill="#fff" stroke="#333" stroke-width="0.8"/>
      <text x="116" y="297" font-size="7" font-family="Arial,sans-serif" fill="#555">B</text><circle cx="186" cy="294" r="5" fill="#fff" stroke="#333" stroke-width="0.8"/>
      <text x="194" y="297" font-size="7" font-family="Arial,sans-serif" fill="#555">C</text><circle cx="264" cy="294" r="5" fill="#fff" stroke="#333" stroke-width="0.8"/>
      <text x="272" y="297" font-size="7" font-family="Arial,sans-serif" fill="#555">D</text></g>
</svg>