<?xml version="1.0" encoding="UTF-8"?>
<svg xmlns="http://www.w3.org/2000/svg" width="360" height="480" viewBox="0 0 360 480">
  <rect width="360" height="480" fill="#fafafa"/>
  <rect x="0" y="0" width="360" height="42" fill="#1a365d"/>
  <text x="14" y="18" font-size="11" font-weight="bold" font-family="Arial,sans-serif" fill="#fff">READING PASSAGE 3</text>
  <text x="14" y="32" font-size="8" font-family="Arial,sans-serif" fill="#bee3f8">r3f · Cam9 Test 1</text>
  <rect x="10" y="48" width="340" height="422" rx="4" fill="#fff" stroke="#ddd" stroke-width="1"/>
  <text x="14" y="68" font-size="9" font-weight="bold" font-family="Arial,sans-serif" fill="#111">Questions 27–30</text>
    <text x="14" y="80" font-size="7" font-family="Arial,sans-serif" fill="#555">Complete summary — TWO WORDS</text>
  <text x="14" y="96" font-size="8" font-family="Arial,sans-serif" fill="#111">27. Sleep is linked to </text>
    <rect x="93.8" y="86" width="48" height="14" rx="2" fill="#e8f4fc" stroke="#2b6cb0" stroke-width="0.9"/>
    <text x="117.8" y="96" font-size="8" font-family="Arial,sans-serif" fill="#111"></text>
  <text x="14" y="118" font-size="8" font-family="Arial,sans-serif" fill="#111">28. Brain replays experiences from the </text>
    <rect x="161" y="108" width="48" height="14" rx="2" fill="#e8f4fc" stroke="#2b6cb0" stroke-width="0.9"/>
    <text x="185" y="118" font-size="8" font-family="Arial,sans-serif" fill="#111"></text>
  <text x="14" y="148" font-size="9" font-weight="bold" font-family="Arial,sans-serif" fill="#111">Questions 31–33</text>
    <text x="14" y="160" font-size="7" font-family="Arial,sans-serif" fill="#555">TRUE / FALSE / NOT GIVEN</text>
  <text x="14" y="178" font-size="8" font-family="Arial,sans-serif" fill="#111">31. All researchers agree on lab experiments.</text><rect x="268" y="166" width="22" height="16" rx="2" fill="#fff" stroke="#333" stroke-width="0.8"/>
      <text x="279" y="178" text-anchor="middle" font-size="7" font-family="Arial,sans-serif" fill="#333">T</text><rect x="294" y="166" width="22" height="16" rx="2" fill="#fff" stroke="#333" stroke-width="0.8"/>
      <text x="305" y="178" text-anchor="middle" font-size="7" font-family="Arial,sans-serif" fill="#333">F</text><rect x="320" y="166" width="22" height="16" rx="2" fill="#fff" stroke="#333" stroke-width="0.8"/>
      <text x="331" y="178" text-anchor="middle" font-size="7" font-family="Arial,sans-serif" fill="#333">NG</text>
  <text x="14" y="200" font-size="9" font-weight="bold" font-family="Arial,sans-serif" fill="#111">Questions 34–39</text>
    <text x="14" y="212" font-size="7" font-family="Arial,sans-serif" fill="#555">Complete flow-chart — choose from box A–G</text>
  <text x="18" y="216" font-size="7.5" font-family="Arial,sans-serif" fill="#222"><tspan font-weight="bold">A</tspan>  slow-wave sleep</text>
  <text x="18" y="228" font-size="7.5" font-family="Arial,sans-serif" fill="#222"><tspan font-weight="bold">B</tspan>  REM sleep</text>
  <text x="14" y="258" font-size="8" font-family="Arial,sans-serif" fill="#111">34. Stage 1 → ___</text>
    <rect x="300" y="248" width="22" height="14" rx="2" fill="#fff" stroke="#333" stroke-width="0.8"/>
    <text x="311" y="258" text-anchor="middle" font-size="8" font-family="Arial,sans-serif" fill="#555">A</text>
  <text x="14" y="280" font-size="8" font-family="Arial,sans-serif" fill="#111">35. Stage 2 → ___</text>
    <rect x="300" y="270" width="22" height="14" rx="2" fill="#fff" stroke="#333" stroke-width="0.8"/>
    <text x="311" y="280" text-anchor="middle" font-size="8" font-family="Arial,sans-serif" fill="#555">A</text>
  <text x="14" y="290" font-size="9" font-weight="bold" font-family="Arial,sans-serif" fill="#111">Question 40</text>
    <text x="14" y="302" font-size="7" font-family="Arial,sans-serif" fill="#555">Choose A, B, C or D</text>
  <text x="14" y="306" font-size="8" font-weight="bold" font-family="Arial,sans-serif" fill="#111">40. Overall tone of the passage?</text>
    <g transform="translate(0,6)"><circle cx="30" cy="316" r="5" fill="#fff" stroke="#333" stroke-width="0.8"/>
      <text x="38" y="319" font-size="7" font-family="Arial,sans-serif" fill="#555">A</text><circle cx="108" cy="316" r="5" fill="#fff" stroke="#333" stroke-width="0.8"/>
      <text x="116" y="319" font-size="7" font-family="Arial,sans-serif" fill="#555">B</text><circle cx="186" cy="316" r="5" fill="#fff" stroke="#333" stroke-width="0.8"/>
      <text x="194" y="319" font-size="7" font-family="Arial,sans-serif" fill="#555">C</text><circle cx="264" cy="316" r="5" fill="#fff" stroke="#333" stroke-width="0.8"/>
      <text x="272" y="319" font-size="7" font-family="Arial,sans-serif" fill="#555">D</text></g>
</svg>