<?xml version="1.0" encoding="UTF-8"?>
<svg xmlns="http://www.w3.org/2000/svg" width="360" height="480" viewBox="0 0 360 480">
  <rect width="360" height="480" fill="#fafafa"/>
  <rect x="0" y="0" width="360" height="42" fill="#1a365d"/>
  <text x="14" y="18" font-size="11" font-weight="bold" font-family="Arial,sans-serif" fill="#fff">READING PASSAGE 1</text>
  <text x="14" y="32" font-size="8" font-family="Arial,sans-serif" fill="#bee3f8">r1g · Cam9 Test 1</text>
  <rect x="10" y="48" width="340" height="422" rx="4" fill="#fff" stroke="#ddd" stroke-width="1"/>
  <text x="14" y="68" font-size="9" font-weight="bold" font-family="Arial,sans-serif" fill="#111">Questions 1–7</text>
    <text x="14" y="80" font-size="7" font-family="Arial,sans-serif" fill="#555">TRUE / FALSE / NOT GIVEN</text>
  <text x="14" y="102" font-size="8" font-family="Arial,sans-serif" fill="#111">1. Perkin was born in 1838.</text><rect x="268" y="90" width="22" height="16" rx="2" fill="#fff" stroke="#333" stroke-width="0.8"/>
      <text x="279" y="102" text-anchor="middle" font-size="7" font-family="Arial,sans-serif" fill="#333">T</text><rect x="294" y="90" width="22" height="16" rx="2" fill="#fff" stroke="#333" stroke-width="0.8"/>
      <text x="305" y="102" text-anchor="middle" font-size="7" font-family="Arial,sans-serif" fill="#333">F</text><rect x="320" y="90" width="22" height="16" rx="2" fill="#fff" stroke="#333" stroke-width="0.8"/>
      <text x="331" y="102" text-anchor="middle" font-size="7" font-family="Arial,sans-serif" fill="#333">NG</text>
  <text x="14" y="124" font-size="8" font-family="Arial,sans-serif" fill="#111">2. His first dye was purple.</text><rect x="268" y="112" width="22" height="16" rx="2" fill="#fff" stroke="#333" stroke-width="0.8"/>
      <text x="279" y="124" text-anchor="middle" font-size="7" font-family="Arial,sans-serif" fill="#333">T</text><rect x="294" y="112" width="22" height="16" rx="2" fill="#fff" stroke="#333" stroke-width="0.8"/>
      <text x="305" y="124" text-anchor="middle" font-size="7" font-family="Arial,sans-serif" fill="#333">F</text><rect x="320" y="112" width="22" height="16" rx="2" fill="#fff" stroke="#333" stroke-width="0.8"/>
      <text x="331" y="124" text-anchor="middle" font-size="7" font-family="Arial,sans-serif" fill="#333">NG</text>
  <text x="14" y="146" font-size="8" font-family="Arial,sans-serif" fill="#111">3. Queen Victoria wore mauve.</text><rect x="268" y="134" width="22" height="16" rx="2" fill="#fff" stroke="#333" stroke-width="0.8"/>
      <text x="279" y="146" text-anchor="middle" font-size="7" font-family="Arial,sans-serif" fill="#333">T</text><rect x="294" y="134" width="22" height="16" rx="2" fill="#fff" stroke="#333" stroke-width="0.8"/>
      <text x="305" y="146" text-anchor="middle" font-size="7" font-family="Arial,sans-serif" fill="#333">F</text><rect x="320" y="134" width="22" height="16" rx="2" fill="#fff" stroke="#333" stroke-width="0.8"/>
      <text x="331" y="146" text-anchor="middle" font-size="7" font-family="Arial,sans-serif" fill="#333">NG</text>
  <text x="14" y="164" font-size="9" font-weight="bold" font-family="Arial,sans-serif" fill="#111">Questions 8–13</text>
    <text x="14" y="176" font-size="7" font-family="Arial,sans-serif" fill="#555">Complete the notes — NO MORE THAN TWO WORDS</text>
  <text x="14" y="196" font-size="8" font-family="Arial,sans-serif" fill="#111">8. Perkin was a student of </text>
    <rect x="114.80000000000001" y="186" width="48" height="14" rx="2" fill="#e8f4fc" stroke="#2b6cb0" stroke-width="0.9"/>
    <text x="138.8" y="196" font-size="8" font-family="Arial,sans-serif" fill="#111"></text>
  <text x="14" y="218" font-size="8" font-family="Arial,sans-serif" fill="#111">9. He discovered the dye by </text>
    <rect x="119" y="208" width="48" height="14" rx="2" fill="#e8f4fc" stroke="#2b6cb0" stroke-width="0.9"/>
    <text x="143" y="218" font-size="8" font-family="Arial,sans-serif" fill="#111"></text>
  <text x="14" y="240" font-size="8" font-family="Arial,sans-serif" fill="#111">10. The colour became known as </text>
    <rect x="127.4" y="230" width="48" height="14" rx="2" fill="#e8f4fc" stroke="#2b6cb0" stroke-width="0.9"/>
    <text x="151.4" y="240" font-size="8" font-family="Arial,sans-serif" fill="#111"></text>
</svg>